<svg width="28" height="27" viewBox="0 0 28 27" fill="none" xmlns="http://www.w3.org/2000/svg">
<path fill-rule="evenodd" clip-rule="evenodd" d="M20.5 14.5C20.5 17.9518 17.7018 20.75 14.25 20.75C10.7982 20.75 8 17.9518 8 14.5C8 11.0482 10.7982 8.25 14.25 8.25C17.7018 8.25 20.5 11.0482 20.5 14.5ZM19 14.5C19 17.1234 16.8734 19.25 14.25 19.25C11.6266 19.25 9.5 17.1234 9.5 14.5C9.5 11.8766 11.6266 9.75 14.25 9.75C16.8734 9.75 19 11.8766 19 14.5Z" fill="#fff"/>
<path fill-rule="evenodd" clip-rule="evenodd" d="M14 0C17.1804 0 19.9828 1.61857 21.6284 4.07692H25.2115C26.3373 4.07692 27.25 4.98957 27.25 6.11538V24.4615C27.25 25.5873 26.3373 26.5 25.2115 26.5H2.78846C1.66265 26.5 0.75 25.5873 0.75 24.4615V6.11538C0.75 4.98957 1.66265 4.07692 2.78846 4.07692H6.37162C8.01719 1.61857 10.8196 0 14 0ZM7.17258 5.57692L7.61813 4.91131C8.99714 2.85117 11.3411 1.5 14 1.5C16.6589 1.5 19.0029 2.85117 20.3819 4.91131L20.8274 5.57692H25.2115C25.5089 5.57692 25.75 5.818 25.75 6.11538V24.4615C25.75 24.7589 25.5089 25 25.2115 25H2.78846C2.49108 25 2.25 24.7589 2.25 24.4615V6.11538C2.25 5.818 2.49108 5.57692 2.78846 5.57692H7.17258Z" fill="#fff"/>
</svg>
